<?xml version="1.0" standalone="no"?>
<!DOCTYPE svg PUBLIC "-//W3C//DTD SVG 20010904//EN"
 "http://www.w3.org/TR/2001/REC-SVG-20010904/DTD/svg10.dtd">
<svg version="1.0" xmlns="http://www.w3.org/2000/svg"
 width="500.000000pt" height="500.000000pt" viewBox="0 0 500.000000 500.000000"
 preserveAspectRatio="xMidYMid meet">
<metadata>
Created by potrace 1.14, written by Peter Selinger 2001-2017
</metadata>
<g transform="translate(0.000000,500.000000) scale(0.100000,-0.100000)"
fill="#000000" stroke="none">
<path d="M330 2555 l0 -1165 155 0 155 0 0 396 0 396 59 62 c32 33 84 88 115
121 l56 60 38 -40 c20 -22 87 -96 147 -165 60 -69 112 -127 115 -130 3 -3 95
-106 204 -230 203 -229 323 -365 386 -433 l35 -38 197 3 198 3 -28 30 c-15 17
-90 102 -167 190 -77 88 -142 162 -145 165 -5 5 -67 75 -215 245 -33 37 -69
78 -80 89 -11 12 -49 55 -85 96 -36 41 -67 77 -70 80 -3 3 -36 41 -75 85 -38
44 -72 82 -75 85 -3 3 -32 37 -65 75 -33 39 -63 72 -67 73 -17 8 -4 27 76 110
46 48 102 107 125 132 24 25 103 108 176 185 73 77 154 163 181 192 27 28 110
115 184 193 74 78 167 176 207 218 l71 77 -186 3 c-151 2 -189 0 -197 -11 -6
-8 -59 -67 -120 -131 -60 -65 -120 -129 -134 -144 -13 -15 -70 -76 -127 -137
-56 -60 -115 -123 -130 -140 -15 -16 -76 -82 -135 -146 -60 -63 -117 -125
-127 -137 -11 -12 -73 -79 -139 -149 -66 -71 -139 -148 -161 -173 l-41 -45 -1
608 0 607 -155 0 -155 0 0 -1165z"/>
<path d="M2543 2555 l-1 -1165 144 0 144 0 1 1003 0 1002 34 -70 c37 -78 104
-219 273 -580 38 -82 90 -193 115 -245 69 -146 139 -297 182 -387 l38 -83 94
0 c88 0 94 1 102 23 5 12 50 107 100 210 50 104 91 190 91 192 0 2 30 66 66
142 36 76 81 170 99 208 18 39 55 117 83 175 27 58 71 150 97 205 26 55 58
124 71 153 13 28 25 52 26 52 2 0 3 -450 3 -1000 l0 -1000 155 2 155 3 0 1160
0 1160 -216 3 -216 2 -22 -50 c-12 -28 -46 -102 -76 -166 -30 -64 -55 -117
-55 -119 0 -2 -24 -54 -54 -117 -29 -62 -79 -169 -111 -238 -31 -69 -67 -147
-80 -175 -33 -70 -94 -202 -145 -315 -24 -52 -47 -99 -51 -104 -5 -5 -30 38
-57 95 -141 296 -337 709 -439 919 -46 96 -94 196 -105 223 l-20 47 -212 0
-212 0 -1 -1165z"/>
</g>
</svg>
